<svg width="173" height="173" viewBox="0 0 173 173" fill="none" xmlns="http://www.w3.org/2000/svg">
<path fill-rule="evenodd" clip-rule="evenodd" d="M86.5 167.622C131.302 167.622 167.622 131.302 167.622 86.5C167.622 41.6977 131.302 5.37824 86.5 5.37824C41.6977 5.37824 5.37824 41.6977 5.37824 86.5C5.37824 131.302 41.6977 167.622 86.5 167.622ZM86.5 162.488C128.467 162.488 162.488 128.467 162.488 86.5C162.488 44.5329 128.467 10.5118 86.5 10.5118C44.5329 10.5118 10.5118 44.5329 10.5118 86.5C10.5118 128.467 44.5329 162.488 86.5 162.488Z" fill="white"/>
<path fill-rule="evenodd" clip-rule="evenodd" d="M107.93 43.2499H66.3348L64.9575 52.5043L60.55 50.99V57.2997H113.531V50.99L109.767 52.5043L107.93 43.2499ZM81.9406 46.7331C81.1427 46.7331 80.4959 47.3735 80.4959 48.1634C80.4959 48.9533 81.1427 49.5936 81.9406 49.5936H91.9063C92.7042 49.5936 93.351 48.9533 93.351 48.1634C93.351 47.3735 92.7042 46.7331 91.9063 46.7331H81.9406ZM65.5365 127.138C65.5365 125.695 66.7179 124.525 68.1753 124.525H108.399C109.857 124.525 111.038 125.695 111.038 127.138C111.038 128.58 109.857 129.75 108.399 129.75H68.1753C66.7179 129.75 65.5365 128.58 65.5365 127.138Z" fill="white"/>
<path d="M71.1066 121.399H104.772L108.09 92.1002L67.379 92.1002L71.1066 121.399Z" fill="#FBFBFB"/>
<path d="M111.486 62.1159L63.5642 62.1159L65.2427 75.309H109.992L111.486 62.1159Z" fill="#FBFBFB"/>
<path d="M109.992 75.309H65.2427L67.379 92.1002L108.09 92.1002L109.992 75.309Z" fill="black"/>
<path d="M109.992 75.309L111.486 62.1159L63.5642 62.1159L65.2427 75.309M109.992 75.309H65.2427M109.992 75.309L108.09 92.1002M65.2427 75.309L67.379 92.1002M67.379 92.1002L71.1066 121.399H104.772L108.09 92.1002M67.379 92.1002L108.09 92.1002M66.3348 43.2499H107.93L109.767 52.5043L113.531 50.99V57.2997H60.55V50.99L64.9575 52.5043L66.3348 43.2499ZM80.4959 48.1634C80.4959 47.3735 81.1427 46.7331 81.9406 46.7331H91.9063C92.7042 46.7331 93.351 47.3735 93.351 48.1634C93.351 48.9533 92.7042 49.5936 91.9063 49.5936H81.9406C81.1427 49.5936 80.4959 48.9533 80.4959 48.1634ZM68.1753 124.525C66.7179 124.525 65.5365 125.695 65.5365 127.138C65.5365 128.58 66.7179 129.75 68.1753 129.75H108.399C109.857 129.75 111.038 128.58 111.038 127.138C111.038 125.695 109.857 124.525 108.399 124.525H68.1753Z" stroke="black"/>
</svg>
